<svg width="28" height="28" viewBox="0 0 28 28" fill="none" xmlns="http://www.w3.org/2000/svg">
<rect width="28" height="28" rx="2" fill="#F8F8F8"/>
<path d="M18.1298 8.6503H16.7522V8.39537C16.7522 8.17697 16.5644 8 16.3328 8C16.1012 8 15.9134 8.17697 15.9134 8.39537V8.6503H11.1223V8.39537C11.1223 8.17697 10.9344 8 10.7029 8C10.4712 8 10.2835 8.17697 10.2835 8.39537V8.6503H8.87026C8.37461 8.6503 7.89917 8.83574 7.54845 9.16599C7.19785 9.49623 7.00058 9.94415 7 10.4115V18.2389C7.00056 18.7061 7.19784 19.1541 7.54845 19.4843C7.8992 19.8146 8.37461 20 8.87026 20H18.1297C18.6254 20 19.1008 19.8146 19.4515 19.4843C19.8022 19.1541 19.9994 18.7061 20 18.2389V10.4115C19.9994 9.94415 19.8022 9.49623 19.4515 9.16599C19.1008 8.83574 18.6254 8.6503 18.1297 8.6503H18.1298ZM7.83871 10.4115C7.83871 10.1541 7.94724 9.90722 8.14031 9.72522C8.33337 9.54322 8.59523 9.44091 8.8682 9.44091H10.2814V9.69796C10.2814 9.91622 10.4693 10.0932 10.7008 10.0932C10.9324 10.0932 11.1202 9.91622 11.1202 9.69796V9.44104L15.9135 9.44091V9.69796C15.9135 9.91622 16.1013 10.0932 16.3329 10.0932C16.5645 10.0932 16.7523 9.91622 16.7523 9.69796V9.44104H18.1299V9.44091C18.4033 9.44051 18.6657 9.54243 18.8592 9.72456C19.0527 9.90656 19.1615 10.1538 19.1615 10.4115V11.8703H7.83877L7.83871 10.4115ZM18.1298 19.2094H8.87033C8.59695 19.2099 8.33454 19.1078 8.14104 18.9258C7.94756 18.7437 7.83874 18.4966 7.83874 18.2389V12.6608H19.1615V18.2389C19.1615 18.4966 19.0526 18.7437 18.8592 18.9258C18.6657 19.1078 18.4032 19.2099 18.1299 19.2094H18.1298Z" fill="#241D5D"/>
</svg>
