<svg width="11" height="10" viewBox="0 0 11 10" fill="none" xmlns="http://www.w3.org/2000/svg">
<path d="M9.06375 0.541913H7.94191V0.329473C7.94191 0.147475 7.78892 0 7.60036 0C7.41169 0 7.25881 0.147475 7.25881 0.329473V0.541913H3.35707V0.329473C3.35707 0.147475 3.20407 0 3.01551 0C2.82684 0 2.67396 0.147475 2.67396 0.329473V0.541913H1.52308C1.11944 0.541913 0.732253 0.696448 0.446641 0.971657C0.161119 1.24686 0.000468361 1.62013 0 2.0096V8.53242C0.000457384 8.92179 0.161113 9.29506 0.446641 9.57026C0.732277 9.84546 1.11944 10 1.52308 10H9.0637C9.46733 10 9.85452 9.84547 10.1401 9.57026C10.4257 9.29505 10.5863 8.92179 10.5868 8.53242V2.0096C10.5863 1.62013 10.4257 1.24686 10.1401 0.971657C9.8545 0.696453 9.46733 0.541913 9.0637 0.541913H9.06375ZM0.683017 2.0096C0.683017 1.79507 0.771405 1.58935 0.928631 1.43769C1.08586 1.28602 1.2991 1.20076 1.5214 1.20076H2.67228V1.41496C2.67228 1.59685 2.82528 1.74432 3.01383 1.74432C3.20239 1.74432 3.35539 1.59685 3.35539 1.41496V1.20087L7.25888 1.20076V1.41496C7.25888 1.59685 7.41177 1.74432 7.60044 1.74432C7.78899 1.74432 7.94199 1.59685 7.94199 1.41496V1.20087H9.06383V1.20076C9.28646 1.20043 9.50017 1.28536 9.65774 1.43713C9.81531 1.5888 9.90393 1.79485 9.90393 2.00959V3.22523H0.683069L0.683017 2.0096ZM9.06375 9.34114H1.52314C1.30051 9.34158 1.0868 9.25654 0.929228 9.10487C0.77166 8.9531 0.68304 8.74716 0.68304 8.53242V3.88399H9.9039V8.53242C9.9039 8.74718 9.81528 8.9531 9.65771 9.10487C9.50014 9.25654 9.28642 9.34158 9.0638 9.34114H9.06375Z" fill="white"/>
</svg>
