<svg width="33" height="38" viewBox="0 0 33 38" fill="none" xmlns="http://www.w3.org/2000/svg">
<path d="M32.8508 22.873L31.0079 19.2381V7.89556C31.0077 7.75561 30.9531 7.62141 30.8561 7.52231L23.6168 0.154533C23.5197 0.0556653 23.388 8.58246e-05 23.2506 0H2.52541C2.3879 0 2.25602 0.055605 2.15879 0.154583C2.06155 0.25356 2.00693 0.387802 2.00693 0.527778V19.1718C2.0071 19.2173 2.0131 19.2626 2.02476 19.3065L0.212153 22.1802C0.0201514 22.4861 -0.0450037 22.857 0.03094 23.2117C0.106884 23.5665 0.317744 23.8761 0.617398 24.073L2.00693 24.9812V37.4722C2.00693 37.5415 2.02034 37.6102 2.0464 37.6742C2.07245 37.7382 2.11064 37.7964 2.15879 37.8454C2.20693 37.8944 2.26409 37.9333 2.327 37.9598C2.3899 37.9863 2.45732 38 2.52541 38H30.4894C30.6269 38 30.7588 37.9444 30.856 37.8454C30.9533 37.7464 31.0079 37.6122 31.0079 37.4722V25.4435C31.0078 25.4239 31.0067 25.4043 31.0046 25.3848L32.2722 24.7186C32.5889 24.5516 32.8277 24.2635 32.9362 23.9176C33.0447 23.5716 33.0139 23.196 32.8508 22.873ZM23.7691 1.80204L29.2376 7.36862H23.7691V1.80204ZM3.04389 1.05556H22.7321V7.89556C22.7321 8.03553 22.7867 8.16977 22.884 8.26875C22.9812 8.36773 23.1131 8.42333 23.2506 8.42333H29.9701V17.1929L28.1326 13.5685C27.9689 13.2457 27.6861 13.0022 27.3462 12.8913C27.0063 12.7805 26.6371 12.8115 26.3196 12.9774L23.6774 14.3653C23.3755 14.5242 23.1438 14.7936 23.029 15.1193C22.9142 15.4449 22.9248 15.8028 23.0585 16.1209L22.798 16.2083C22.5522 16.2937 22.2931 16.3323 22.0336 16.3223L18.9227 16.2319C18.0878 16.1978 17.2733 16.4995 16.6551 17.0717L15.4165 18.1919L10.605 16.3535C10.7527 16.0513 10.7858 15.7042 10.6978 15.3787C10.6097 15.0532 10.4069 14.7722 10.128 14.5895L7.62644 12.9542C7.32586 12.7587 6.96143 12.6924 6.61292 12.7698C6.26441 12.8471 5.96023 13.0619 5.76696 13.3671L3.04389 17.6911V1.05556ZM21.2915 26.7507L24.0179 28.5325C24.2298 28.677 24.3776 28.9004 24.4295 29.1546C24.4814 29.4088 24.4333 29.6736 24.2955 29.8921C24.1578 30.1107 23.9413 30.2655 23.6927 30.3233C23.444 30.3812 23.183 30.3374 22.9656 30.2016L22.1336 29.6577L20.2886 28.4253C20.1736 28.3484 20.0334 28.3213 19.8988 28.3497C19.7641 28.3781 19.6461 28.4598 19.5706 28.5768C19.4951 28.6939 19.4684 28.8366 19.4964 28.9737C19.5243 29.1107 19.6045 29.2309 19.7195 29.3077L21.5649 30.5406H21.5678C21.7841 30.6841 21.9363 30.9083 21.9918 31.165C22.0473 31.4216 22.0015 31.6902 21.8644 31.9128C21.7241 32.1333 21.5039 32.2885 21.2518 32.3444C20.9997 32.4003 20.736 32.3525 20.5184 32.2113L19.9966 31.8706L18.9887 31.2145C18.9315 31.1729 18.8667 31.1436 18.7981 31.1283C18.7295 31.1131 18.6586 31.1121 18.5896 31.1256C18.5207 31.139 18.4551 31.1666 18.397 31.2066C18.3388 31.2466 18.2892 31.2983 18.2512 31.3584C18.2132 31.4185 18.1876 31.4858 18.176 31.5563C18.1643 31.6268 18.1668 31.6989 18.1834 31.7684C18.1999 31.8378 18.2302 31.9031 18.2723 31.9603C18.3144 32.0175 18.3675 32.0654 18.4283 32.1011L19.435 32.759C19.6479 32.903 19.7967 33.1265 19.8493 33.3812C19.9018 33.6359 19.8539 33.9014 19.7159 34.1205C19.5778 34.3395 19.3607 34.4946 19.1114 34.5522C18.8621 34.6098 18.6005 34.5654 18.3831 34.4284L17.0732 33.5696L17.6236 32.6965C17.8125 32.3977 17.9214 32.0538 17.9395 31.699C17.9577 31.3442 17.8845 30.9907 17.7272 30.6735C17.5698 30.3563 17.3339 30.0865 17.0426 29.8907C16.7513 29.6949 16.4148 29.58 16.0665 29.5572C16.2768 29.18 16.3637 28.7444 16.3145 28.3136C16.2653 27.8827 16.0826 27.479 15.7929 27.161C15.5032 26.8429 15.1215 26.627 14.7032 26.5446C14.2848 26.4622 13.8516 26.5175 13.4662 26.7026C13.3145 26.2196 12.9911 25.8117 12.5593 25.5588C12.1276 25.3058 11.6187 25.226 11.1322 25.335C10.8344 25.4007 10.5553 25.5345 10.3159 25.7264C10.1656 25.3939 9.93023 25.1087 9.63439 24.9007C9.33856 24.6926 8.99318 24.5695 8.63448 24.5441C8.27579 24.5187 7.91699 24.592 7.59571 24.7564C7.27444 24.9207 7.00252 25.17 6.80848 25.4782L6.53058 25.9194L5.45214 24.5412L10.0426 17.2689L14.5413 18.9882L12.876 20.4947C12.8156 20.5492 12.7686 20.6172 12.7387 20.6934C12.7087 20.7697 12.6966 20.852 12.7034 20.9338C12.7411 21.389 12.8997 21.8253 13.1623 22.1958C13.4249 22.5664 13.7815 22.8572 14.194 23.0373C14.6065 23.2173 15.0593 23.2798 15.504 23.218C15.9487 23.1562 16.3686 22.9725 16.7185 22.6864C16.7297 22.6771 16.7405 22.6678 16.7509 22.6577C17.3938 22.0308 18.0688 21.4389 18.773 20.8844C18.9164 21.3639 19.1742 21.7999 19.5232 22.1535C19.8722 22.507 20.3017 22.7673 20.7735 22.911C20.9755 22.9704 21.1677 23.06 21.3438 23.177L26.4652 26.5244C26.6817 26.6673 26.834 26.8914 26.889 27.148C26.944 27.4046 26.8972 27.6729 26.7588 27.8945C26.619 28.1156 26.3988 28.2711 26.1465 28.3271C25.8941 28.3831 25.6303 28.3349 25.4128 28.193L24.5783 27.648L21.8507 25.8624C21.7354 25.7954 21.5992 25.776 21.4703 25.8082C21.3413 25.8404 21.2294 25.9217 21.1576 26.0354C21.0858 26.1491 21.0596 26.2865 21.0844 26.4192C21.1091 26.552 21.183 26.6701 21.2907 26.749L21.2915 26.7507ZM14.2506 30.4925L12.9552 32.5462L12.328 33.5401C12.1872 33.7552 11.9689 33.9054 11.7203 33.9583C11.4716 34.0112 11.2125 33.9626 10.9988 33.8229C10.785 33.6832 10.6338 33.4636 10.5776 33.2114C10.5214 32.9593 10.5648 32.6947 10.6983 32.4748L10.9037 32.1488L13.248 28.4333L13.511 28.0161C13.5797 27.9072 13.6689 27.8132 13.7735 27.7396C13.8781 27.6659 13.9959 27.6141 14.1203 27.5872C14.1894 27.5717 14.2599 27.564 14.3306 27.5639C14.5145 27.5638 14.6945 27.6176 14.8491 27.7189C15.0647 27.8607 15.2164 28.0837 15.2708 28.3391C15.3252 28.5945 15.278 28.8614 15.1394 29.0814L14.2497 30.4916L14.2506 30.4925ZM6.25474 28.3163L7.68285 26.0511C7.82372 25.836 8.04199 25.6857 8.29063 25.6328C8.53927 25.5799 8.79837 25.6286 9.01211 25.7683C9.22585 25.908 9.37711 26.1276 9.43331 26.3798C9.4895 26.6319 9.44613 26.8965 9.31254 27.1164L7.88319 29.3824C7.74066 29.5938 7.52288 29.7403 7.27602 29.7909C7.02916 29.8415 6.77264 29.7923 6.56085 29.6536C6.34906 29.5149 6.19864 29.2978 6.1415 29.0481C6.08435 28.7985 6.12497 28.536 6.25474 28.3163ZM8.4025 30.5119L8.75714 29.9495L10.1865 27.6834L10.7469 26.7946C10.8158 26.6861 10.9052 26.5925 11.0098 26.5193C11.1145 26.4461 11.2323 26.3948 11.3566 26.3682C11.4248 26.3536 11.4943 26.3464 11.564 26.3467C11.7372 26.3479 11.9069 26.3963 12.0554 26.4869C12.204 26.5775 12.326 26.707 12.4087 26.8619C12.4914 27.0168 12.5318 27.1914 12.5257 27.3676C12.5196 27.5438 12.4673 27.7151 12.3741 27.8637L12.2978 27.9853L10.0293 31.5793C9.88842 31.7944 9.67015 31.9446 9.42151 31.9975C9.17287 32.0504 8.91377 32.0018 8.70003 31.8621C8.4863 31.7224 8.33503 31.5028 8.27884 31.2506C8.22264 30.9985 8.26601 30.7339 8.3996 30.514L8.4025 30.5119ZM13.8287 33.1145L15.1245 31.0604C15.1931 30.9514 15.2822 30.8575 15.3867 30.7839C15.4913 30.7104 15.6091 30.6586 15.7334 30.6318C15.8025 30.6164 15.873 30.6086 15.9437 30.6086C16.1169 30.6098 16.2866 30.6583 16.4351 30.7489C16.5836 30.8395 16.7056 30.969 16.7883 31.1239C16.8711 31.2787 16.9115 31.4533 16.9055 31.6295C16.8995 31.8057 16.8473 31.977 16.7542 32.1256L15.4588 34.1793C15.3185 34.3957 15.1001 34.5472 14.8509 34.6009C14.6017 34.6546 14.3417 34.6061 14.1273 34.4661C13.9129 34.326 13.7614 34.1057 13.7055 33.8527C13.6496 33.5997 13.6939 33.3345 13.8287 33.1145ZM26.6041 25.3544L21.9038 22.2857C21.646 22.1149 21.3649 21.9836 21.0696 21.896C20.664 21.7515 20.3096 21.4878 20.0512 21.1383C19.7928 20.7887 19.642 20.369 19.6179 19.9323C19.6071 19.8488 19.5768 19.7692 19.5296 19.7001C19.4824 19.6309 19.4197 19.5743 19.3466 19.5348C19.2736 19.4954 19.1923 19.4743 19.1096 19.4733C19.027 19.4722 18.9452 19.4914 18.8713 19.529C17.8593 20.2154 16.9156 21.0008 16.0536 21.8741C15.8658 22.0233 15.6444 22.1227 15.4095 22.1633C15.1745 22.2039 14.9334 22.1844 14.7077 22.1065C14.482 22.0287 14.2788 21.895 14.1165 21.7174C13.9542 21.5398 13.8377 21.3239 13.7777 21.0892L15.8645 19.2018L15.8807 19.187L17.3449 17.8625C17.5529 17.6674 17.7969 17.5162 18.0628 17.4177C18.3287 17.3193 18.6111 17.2756 18.8937 17.2892L22.0046 17.3795C22.3847 17.3933 22.7642 17.3368 23.1245 17.2127L23.5393 17.0742L27.4009 24.6911L26.6041 25.3544ZM1.04504 22.9849C1.03613 22.9447 1.03521 22.9031 1.04233 22.8624C1.04945 22.8218 1.06448 22.7831 1.08652 22.7485L6.64464 13.9371C6.66657 13.9025 6.69501 13.8726 6.72832 13.8492C6.76164 13.8258 6.79917 13.8093 6.83876 13.8008C6.86098 13.7959 6.88365 13.7935 6.90637 13.7936C6.96519 13.7931 7.02286 13.8101 7.07229 13.8426L9.57427 15.4774C9.64239 15.5232 9.69023 15.5942 9.70759 15.6754C9.72495 15.7566 9.71045 15.8414 9.66718 15.9119L9.3955 16.34L9.3926 16.3442L4.45292 24.1756C4.38833 24.2362 4.34007 24.3127 4.31272 24.3977L4.10533 24.7253C4.06059 24.7948 3.99086 24.8436 3.91112 24.8613C3.83138 24.879 3.74801 24.8641 3.67893 24.8199L1.17777 23.1846C1.14368 23.1624 1.11428 23.1335 1.09128 23.0995C1.06828 23.0656 1.05214 23.0274 1.0438 22.987L1.04504 22.9849ZM29.9709 36.9444H3.04389V25.6589L3.11938 25.7078C3.33484 25.8495 3.58587 25.9249 3.84235 25.9249C3.93999 25.9248 4.03734 25.9141 4.1327 25.8928C4.41026 25.8317 4.66147 25.6822 4.84987 25.4659L5.94034 26.8592L5.38079 27.7459C5.18625 28.054 5.07677 28.4098 5.06383 28.7758C5.0509 29.1418 5.13498 29.5047 5.30727 29.8262C5.47956 30.1478 5.73369 30.4162 6.04301 30.6034C6.35232 30.7905 6.70541 30.8894 7.06524 30.8898C7.11625 30.8898 7.16686 30.8868 7.21746 30.883C7.20258 31.0833 7.21656 31.2847 7.25894 31.4809C7.3555 31.9345 7.60145 32.3409 7.95602 32.6327C8.31059 32.9245 8.75248 33.0842 9.20843 33.0853C9.30868 33.0851 9.40878 33.0774 9.50791 33.0621C9.52162 33.5923 9.73786 34.0962 10.1107 34.4668C10.4835 34.8373 10.9836 35.0453 11.5047 35.0466C11.6506 35.0465 11.796 35.0306 11.9385 34.9988C12.2723 34.9258 12.5822 34.7671 12.8386 34.5378C13.0022 34.8817 13.2574 35.1719 13.5752 35.3753C13.893 35.5786 14.2605 35.687 14.6359 35.6879C14.7817 35.6877 14.927 35.6716 15.0693 35.6398C15.3269 35.5838 15.5709 35.4763 15.7874 35.3236C16.0038 35.1709 16.1884 34.976 16.3303 34.7502L16.5145 34.4576L17.8231 35.3155C18.1444 35.5272 18.5189 35.6399 18.9016 35.6402C19.0472 35.6402 19.1923 35.6242 19.3346 35.5925C19.8123 35.4879 20.2361 35.2094 20.5263 34.8092C20.8165 34.4091 20.9532 33.9148 20.9108 33.4193C21.0983 33.4317 21.2866 33.4175 21.4703 33.3771C21.9221 33.2797 22.3267 33.026 22.6154 32.6591C22.904 32.2922 23.0589 31.8348 23.0536 31.3648C23.3486 31.4317 23.6546 31.43 23.9489 31.3599C24.2432 31.2898 24.5182 31.153 24.7534 30.9597C24.9886 30.7665 25.1779 30.5217 25.3073 30.2436C25.4367 29.9656 25.5028 29.6614 25.5008 29.3537C25.914 29.4462 26.3454 29.4038 26.7337 29.2325C27.1219 29.0612 27.4472 28.7698 27.6634 28.3995C27.8796 28.0293 27.9757 27.5991 27.9381 27.1701C27.9004 26.7411 27.7309 26.3351 27.4536 26.0097L27.8899 25.6445C28.0729 25.9261 28.3515 26.129 28.6724 26.2143C28.9933 26.2997 29.3339 26.2614 29.6287 26.1068L29.9697 25.9278L29.9709 36.9444ZM31.9482 23.5967C31.9237 23.6761 31.8693 23.7423 31.7968 23.7808L29.1546 25.1687C29.0818 25.2053 28.9978 25.2117 28.9204 25.1865C28.843 25.1613 28.7782 25.1065 28.7398 25.0336L28.5113 24.5826L24.3162 16.3109C24.3124 16.2944 24.3079 16.2775 24.3025 16.261C24.2801 16.192 24.244 16.1285 24.1963 16.0744L24.0208 15.729C23.9844 15.655 23.9779 15.5693 24.0027 15.4904C24.0275 15.4115 24.0816 15.3456 24.1536 15.3068L26.7957 13.9186C26.8389 13.896 26.8866 13.8843 26.9351 13.8844C26.9676 13.8844 26.9999 13.8895 27.0309 13.8996C27.0696 13.9118 27.1054 13.9318 27.1365 13.9582C27.1675 13.9847 27.1931 14.0171 27.2118 14.0537L31.93 23.3573C31.9485 23.394 31.9596 23.4341 31.9627 23.4752C31.9659 23.5163 31.9609 23.5576 31.9482 23.5967ZM5.05643 3.3174C5.05643 3.17742 5.11106 3.04318 5.20829 2.94421C5.30552 2.84523 5.4374 2.78962 5.57491 2.78962H20.0182C20.1557 2.78962 20.2875 2.84523 20.3848 2.94421C20.482 3.04318 20.5366 3.17742 20.5366 3.3174C20.5366 3.45738 20.482 3.59162 20.3848 3.6906C20.2875 3.78957 20.1557 3.84518 20.0182 3.84518H5.57491C5.4374 3.84518 5.30552 3.78957 5.20829 3.6906C5.11106 3.59162 5.05643 3.45738 5.05643 3.3174ZM5.05643 6.43889C5.05643 6.29891 5.11106 6.16467 5.20829 6.06569C5.30552 5.96672 5.4374 5.91111 5.57491 5.91111H20.0182C20.1557 5.91111 20.2875 5.96672 20.3848 6.06569C20.482 6.16467 20.5366 6.29891 20.5366 6.43889C20.5366 6.57886 20.482 6.71311 20.3848 6.81208C20.2875 6.91106 20.1557 6.96667 20.0182 6.96667H5.57491C5.4374 6.96667 5.30552 6.91106 5.20829 6.81208C5.11106 6.71311 5.05643 6.57886 5.05643 6.43889ZM21.3944 10.0882H5.57491C5.4374 10.0882 5.30552 10.0326 5.20829 9.93357C5.11106 9.8346 5.05643 9.70035 5.05643 9.56038C5.05643 9.4204 5.11106 9.28616 5.20829 9.18718C5.30552 9.08821 5.4374 9.0326 5.57491 9.0326H21.3944C21.5319 9.0326 21.6638 9.08821 21.761 9.18718C21.8583 9.28616 21.9129 9.4204 21.9129 9.56038C21.9129 9.70035 21.8583 9.8346 21.761 9.93357C21.6638 10.0326 21.5319 10.0882 21.3944 10.0882Z" fill="#241D5D"/>
</svg>
