<svg width="129" height="55" viewBox="0 0 129 55" fill="none" xmlns="http://www.w3.org/2000/svg">
<path d="M52.582 3.96338H20.0058L18.5598 5.56919H53.9939L52.582 3.96338Z" fill="#241D5D"/>
<path d="M40.8883 43.9948H31.6084L36.2541 48.7211L40.8883 43.9948Z" fill="#241D5D"/>
<path d="M54.5404 0H18.1042L0 17.9031L36.1743 54.7912L50.9424 39.7011H48.5968L36.1743 52.3996L2.36837 17.9145L18.7874 1.67415H53.8459L59.4934 7.41407H61.839L54.5404 0Z" fill="#241D5D"/>
<path d="M29.7524 25.7613H42.118V20.978H29.7524V15.1926H43.7576V10.2385H23.6266V36.8767H44.2472V31.934H29.7524V25.7613Z" fill="#241D5D"/>
<path d="M55.3146 10.2385H49.1546V36.8767H68.6707V31.8543H55.3146V10.2385Z" fill="#241D5D"/>
<path d="M78.2921 10.2385H72.1321V36.8767H78.2921V10.2385Z" fill="#241D5D"/>
<path d="M81.6056 15.2609H90.1225V36.8767H96.2825V15.2609H104.811V10.2385H81.6056V15.2609Z" fill="#241D5D"/>
<path d="M114.239 31.934V25.7613H126.604V20.978H114.239V15.1926H128.244V10.2385H108.113V36.8767H128.733V31.934H114.239Z" fill="#241D5D"/>
</svg>
