<svg width="28" height="28" viewBox="0 0 28 28" fill="none" xmlns="http://www.w3.org/2000/svg">
<rect width="28" height="28" rx="2" fill="#F8F8F8"/>
<path d="M13.4169 10.5C12.3215 10.5 11.4335 11.388 11.4335 12.4833C11.4335 13.5787 12.3215 14.4667 13.4169 14.4667H14.5835C15.1634 14.4667 15.6335 14.9368 15.6335 15.5167C15.6335 16.0966 15.1634 16.5667 14.5835 16.5667H11.9002C11.6425 16.5667 11.4335 16.7756 11.4335 17.0333C11.4335 17.2911 11.6425 17.5 11.9002 17.5H13.5335V17.9667C13.5335 18.2244 13.7425 18.4333 14.0002 18.4333C14.2579 18.4333 14.4669 18.2244 14.4669 17.9667V17.5H14.5835C15.6789 17.5 16.5669 16.612 16.5669 15.5167C16.5669 14.4213 15.6789 13.5333 14.5835 13.5333H13.4169C12.837 13.5333 12.3669 13.0633 12.3669 12.4833C12.3669 11.9034 12.837 11.4333 13.4169 11.4333H16.1002C16.3579 11.4333 16.5669 11.2244 16.5669 10.9667C16.5669 10.7089 16.3579 10.5 16.1002 10.5H14.4669V10.0333C14.4669 9.77561 14.2579 9.56668 14.0002 9.56668C13.7425 9.56668 13.5335 9.77561 13.5335 10.0333V10.5H13.4169Z" fill="#241D5D"/>
<path fill-rule="evenodd" clip-rule="evenodd" d="M14 7C10.134 7 7 10.134 7 14C7 17.866 10.134 21 14 21C17.866 21 21 17.866 21 14C21 10.134 17.866 7 14 7ZM7.93333 14C7.93333 10.6495 10.6495 7.93333 14 7.93333C17.3505 7.93333 20.0667 10.6495 20.0667 14C20.0667 17.3505 17.3505 20.0667 14 20.0667C10.6495 20.0667 7.93333 17.3505 7.93333 14Z" fill="#241D5D"/>
</svg>
