<svg width="28" height="28" viewBox="0 0 28 28" fill="none" xmlns="http://www.w3.org/2000/svg">
<rect width="28" height="28" rx="2" fill="#F8F8F8"/>
<path fill-rule="evenodd" clip-rule="evenodd" d="M20.9455 19.7685V20.6088L21.7951 20.6092C21.908 20.6092 21.9993 20.6965 21.9993 20.8046C21.9993 20.9126 21.908 21 21.7951 21H6.2042C6.09128 21 6 20.9126 6 20.8046C6 20.6965 6.09128 20.6092 6.2042 20.6092H6.99324V8.62158H6.92774C6.81481 8.62158 6.72354 8.53423 6.72354 8.42616V7.24872C6.72354 7.14065 6.81481 7.0533 6.92774 7.0533H8.96145V6.19556C8.96145 6.08749 9.05273 6.00014 9.16565 6.00014L11.4675 6C11.5804 6 11.6717 6.08735 11.6717 6.19542V7.05316L13.7644 7.05302C13.8773 7.05302 13.9686 7.14038 13.9686 7.24845V8.42589C13.9686 8.53396 13.8773 8.62131 13.7644 8.62131H13.6989V10.305H17.3497V9.37002C17.3497 9.26195 17.441 9.1746 17.5539 9.1746L18.5036 9.17446C18.6165 9.17446 18.7078 9.26182 18.7078 9.36989V10.3049H19.2363C19.3493 10.3049 19.4405 10.3923 19.4405 10.5003V11.6776C19.4405 11.7857 19.3493 11.873 19.2363 11.873H19.0858L19.086 20.6088H20.5372V19.7685C19.9402 19.6746 19.483 19.1788 19.483 18.5814C19.483 18.1156 19.7614 17.7115 20.1666 17.5113C20.0523 17.3838 19.9807 17.2204 19.9807 17.0397C19.9807 16.6382 20.322 16.3115 20.7415 16.3115C21.161 16.3115 21.5023 16.6382 21.5023 17.0397C21.5023 17.2204 21.4307 17.3839 21.3163 17.5113C21.7216 17.7117 22 18.1156 22 18.5814C22 19.1788 21.5425 19.6747 20.9455 19.7685ZM20.3888 17.0398C20.3888 17.226 20.547 17.3772 20.7413 17.3772C20.9357 17.3772 21.0939 17.2261 21.0939 17.0398C21.0939 16.8536 20.9359 16.7024 20.7413 16.7024C20.5468 16.7024 20.3888 16.8536 20.3888 17.0398ZM19.8912 18.5815C19.8912 19.0303 20.2726 19.3952 20.7413 19.3952C21.2101 19.3952 21.5916 19.0303 21.5916 18.5815C21.5916 18.1329 21.2102 17.768 20.7413 17.768C20.2726 17.768 19.8912 18.1329 19.8912 18.5815ZM17.0505 16.882H15.2893V20.6086H17.0505V16.882ZM9.36994 7.05325H11.2634V6.39095H9.36994V7.05325ZM7.13216 8.23083H13.5604V7.44409H7.13216V8.23083ZM13.2904 20.6092V8.62167L7.40169 8.62188V20.6091L13.2904 20.6092ZM17.758 10.3053H18.2994V9.56554H17.758V10.3053ZM13.6988 11.4826H19.032V10.696H13.6988V11.4826ZM18.6774 20.609V11.8733L13.6988 11.8734L13.6987 20.6091H14.8807V16.6868C14.8807 16.5787 14.972 16.4913 15.0849 16.4913L17.2541 16.4912C17.367 16.4912 17.4583 16.5786 17.4583 16.6866L17.4584 20.609H18.6774ZM10.044 9.68883V11.5042C10.044 11.612 9.95273 11.6996 9.83981 11.6996L8.49259 11.6997C8.37967 11.6997 8.28839 11.6124 8.28839 11.5043V9.68897C8.28839 9.5809 8.37967 9.49354 8.49259 9.49354L9.83981 9.49341C9.95273 9.49341 10.044 9.58076 10.044 9.68883ZM8.69664 11.3089H9.63576V9.88425H8.69664V11.3089ZM10.044 15.0398V13.2245C10.044 13.1164 9.95273 13.0291 9.83981 13.0291H8.49259C8.37967 13.0291 8.28839 13.1164 8.28839 13.2245V15.0398C8.28839 15.1479 8.37967 15.2353 8.49259 15.2353L9.83981 15.2351C9.95273 15.2351 10.044 15.1478 10.044 15.0398ZM9.63576 14.8444H8.69664V13.4198H9.63576V14.8444ZM12.3454 15.0398V13.2245C12.3454 13.1164 12.2542 13.0291 12.1412 13.0291H10.7934C10.6805 13.0291 10.5892 13.1164 10.5892 13.2245V15.0398C10.5892 15.1479 10.6805 15.2353 10.7934 15.2353H12.1412C12.254 15.2351 12.3454 15.1478 12.3454 15.0398ZM11.9372 14.8444H10.9978V13.4198H11.9372V14.8444ZM10.044 16.8058V18.6211C10.044 18.7292 9.95273 18.8166 9.83981 18.8166L8.49259 18.8167C8.37967 18.8167 8.28839 18.7293 8.28839 18.6213V16.8059C8.28839 16.6978 8.37967 16.6105 8.49259 16.6105L9.83981 16.6104C9.95273 16.6104 10.044 16.6977 10.044 16.8058ZM8.69664 18.4258H9.63576V17.0012H8.69664V18.4258ZM12.3454 18.6211V16.8058C12.3454 16.6977 12.2542 16.6104 12.1412 16.6104H10.7934C10.6805 16.6104 10.5892 16.6977 10.5892 16.8058V18.6211C10.5892 18.7292 10.6805 18.8166 10.7934 18.8166H12.1412C12.254 18.8166 12.3454 18.7292 12.3454 18.6211ZM11.9372 18.4258H10.9978V17.0012H11.9372V18.4258ZM12.3454 11.5042V9.68883C12.3454 9.58076 12.2542 9.49341 12.1412 9.49341H10.7934C10.6805 9.49341 10.5892 9.58076 10.5892 9.68883V11.5042C10.5892 11.6123 10.6805 11.6996 10.7934 11.6996H12.1412C12.254 11.6996 12.3454 11.612 12.3454 11.5042ZM11.9372 11.3089H10.9978V9.88425H11.9372V11.3089Z" fill="#241D5D"/>
<path d="M20.9455 20.6088H20.8455V20.7087L20.9455 20.7088L20.9455 20.6088ZM20.9455 19.7685L20.93 19.6697L20.8455 19.683V19.7685H20.9455ZM21.7951 20.6092L21.795 20.7092H21.7951V20.6092ZM6.99324 20.6092V20.7092H7.09324V20.6092H6.99324ZM6.99324 8.62158H7.09324V8.52158H6.99324V8.62158ZM8.96145 7.0533V7.1533H9.06145V7.0533H8.96145ZM9.16565 6.00014V6.10014H9.16566L9.16565 6.00014ZM11.4675 6V5.9H11.4675L11.4675 6ZM11.6717 7.05316H11.5717V7.15317L11.6717 7.15316L11.6717 7.05316ZM13.7644 7.05302V6.95302H13.7644L13.7644 7.05302ZM13.6989 8.62131V8.52131H13.5989V8.62131H13.6989ZM13.6989 10.305H13.5989V10.405H13.6989V10.305ZM17.3497 10.305V10.405H17.4497V10.305H17.3497ZM17.5539 9.1746V9.2746H17.5539L17.5539 9.1746ZM18.5036 9.17446V9.07446H18.5036L18.5036 9.17446ZM18.7078 10.3049H18.6078V10.4049H18.7078V10.3049ZM19.0858 11.873V11.773H18.9858L18.9858 11.873L19.0858 11.873ZM19.086 20.6088L18.986 20.6088L18.986 20.7088H19.086V20.6088ZM20.5372 20.6088V20.7088H20.6372V20.6088H20.5372ZM20.5372 19.7685H20.6372V19.683L20.5527 19.6697L20.5372 19.7685ZM20.1666 17.5113L20.2109 17.601L20.329 17.5427L20.2411 17.4446L20.1666 17.5113ZM21.3163 17.5113L21.2419 17.4445L21.1539 17.5426L21.272 17.601L21.3163 17.5113ZM15.2893 16.882V16.782H15.1893V16.882H15.2893ZM17.0505 16.882H17.1505V16.782H17.0505V16.882ZM15.2893 20.6086H15.1893V20.7086H15.2893V20.6086ZM17.0505 20.6086V20.7086H17.1505V20.6086H17.0505ZM11.2634 7.05325V7.15325H11.3634V7.05325H11.2634ZM9.36994 7.05325H9.26994V7.15325H9.36994V7.05325ZM11.2634 6.39095H11.3634V6.29095H11.2634V6.39095ZM9.36994 6.39095V6.29095H9.26994V6.39095H9.36994ZM13.5604 8.23083V8.33083H13.6604V8.23083H13.5604ZM7.13216 8.23083H7.03216V8.33083H7.13216V8.23083ZM13.5604 7.44409H13.6604V7.34409H13.5604V7.44409ZM7.13216 7.44409V7.34409H7.03216V7.44409H7.13216ZM13.2904 8.62167H13.3904V8.52167L13.2904 8.52167L13.2904 8.62167ZM13.2904 20.6092L13.2904 20.7092L13.3904 20.7092V20.6092H13.2904ZM7.40169 8.62188L7.40168 8.52188L7.30169 8.52189V8.62188H7.40169ZM7.40169 20.6091H7.30169V20.7091L7.40169 20.7091L7.40169 20.6091ZM18.2994 10.3053V10.4053H18.3994V10.3053H18.2994ZM17.758 10.3053H17.658V10.4053H17.758V10.3053ZM18.2994 9.56554H18.3994V9.46554H18.2994V9.56554ZM17.758 9.56554V9.46554H17.658V9.56554H17.758ZM19.032 11.4826V11.5826H19.132V11.4826H19.032ZM13.6988 11.4826H13.5988V11.5826H13.6988V11.4826ZM19.032 10.696H19.132V10.596H19.032V10.696ZM13.6988 10.696V10.596H13.5988V10.696H13.6988ZM18.6774 11.8733H18.7774V11.7733L18.6774 11.7733L18.6774 11.8733ZM18.6774 20.609V20.709H18.7774V20.609H18.6774ZM13.6988 11.8734L13.6988 11.7734L13.5988 11.7734L13.5988 11.8734L13.6988 11.8734ZM13.6987 20.6091L13.5987 20.6091L13.5987 20.7091H13.6987V20.6091ZM14.8807 20.6091V20.7091H14.9807V20.6091H14.8807ZM15.0849 16.4913V16.5913H15.0849L15.0849 16.4913ZM17.2541 16.4912V16.3912H17.2541L17.2541 16.4912ZM17.4583 16.6866H17.3583V16.6866L17.4583 16.6866ZM17.4584 20.609L17.3584 20.609L17.3584 20.709H17.4584V20.609ZM9.83981 11.6996V11.5996H9.8398L9.83981 11.6996ZM8.49259 11.6997V11.7997H8.4926L8.49259 11.6997ZM8.49259 9.49354V9.59354H8.4926L8.49259 9.49354ZM9.83981 9.49341V9.39341H9.8398L9.83981 9.49341ZM9.63576 11.3089V11.4089H9.73576V11.3089H9.63576ZM8.69664 11.3089H8.59664V11.4089H8.69664V11.3089ZM9.63576 9.88425H9.73576V9.78425H9.63576V9.88425ZM8.69664 9.88425V9.78425H8.59664V9.88425H8.69664ZM8.49259 15.2353V15.3353H8.4926L8.49259 15.2353ZM9.83981 15.2351V15.1351H9.8398L9.83981 15.2351ZM8.69664 14.8444H8.59664V14.9444H8.69664V14.8444ZM9.63576 14.8444V14.9444H9.73576V14.8444H9.63576ZM8.69664 13.4198V13.3198H8.59664V13.4198H8.69664ZM9.63576 13.4198H9.73576V13.3198H9.63576V13.4198ZM12.1412 15.2353V15.3353H12.1414L12.1412 15.2353ZM10.9978 14.8444H10.8978V14.9444H10.9978V14.8444ZM11.9372 14.8444V14.9444H12.0372V14.8444H11.9372ZM10.9978 13.4198V13.3198H10.8978V13.4198H10.9978ZM11.9372 13.4198H12.0372V13.3198H11.9372V13.4198ZM9.83981 18.8166V18.7166H9.8398L9.83981 18.8166ZM8.49259 18.8167V18.9167H8.4926L8.49259 18.8167ZM8.49259 16.6105V16.7105H8.4926L8.49259 16.6105ZM9.83981 16.6104V16.5104H9.8398L9.83981 16.6104ZM9.63576 18.4258V18.5258H9.73576V18.4258H9.63576ZM8.69664 18.4258H8.59664V18.5258H8.69664V18.4258ZM9.63576 17.0012H9.73576V16.9012H9.63576V17.0012ZM8.69664 17.0012V16.9012H8.59664V17.0012H8.69664ZM10.9978 18.4258H10.8978V18.5258H10.9978V18.4258ZM11.9372 18.4258V18.5258H12.0372V18.4258H11.9372ZM10.9978 17.0012V16.9012H10.8978V17.0012H10.9978ZM11.9372 17.0012H12.0372V16.9012H11.9372V17.0012ZM10.9978 11.3089H10.8978V11.4089H10.9978V11.3089ZM11.9372 11.3089V11.4089H12.0372V11.3089H11.9372ZM10.9978 9.88425V9.78425H10.8978V9.88425H10.9978ZM11.9372 9.88425H12.0372V9.78425H11.9372V9.88425ZM21.0455 20.6088V19.7685H20.8455V20.6088H21.0455ZM21.7951 20.5092L20.9456 20.5088L20.9455 20.7088L21.795 20.7092L21.7951 20.5092ZM22.0993 20.8046C22.0993 20.6372 21.959 20.5092 21.7951 20.5092V20.7092C21.857 20.7092 21.8993 20.7558 21.8993 20.8046H22.0993ZM21.7951 21.1C21.959 21.1 22.0993 20.972 22.0993 20.8046H21.8993C21.8993 20.8533 21.857 20.9 21.7951 20.9V21.1ZM6.2042 21.1H21.7951V20.9H6.2042V21.1ZM5.9 20.8046C5.9 20.972 6.04023 21.1 6.2042 21.1V20.9C6.14232 20.9 6.1 20.8533 6.1 20.8046H5.9ZM6.2042 20.5092C6.04023 20.5092 5.9 20.6372 5.9 20.8046H6.1C6.1 20.7558 6.14232 20.7092 6.2042 20.7092V20.5092ZM6.99324 20.5092H6.2042V20.7092H6.99324V20.5092ZM6.89324 8.62158V20.6092H7.09324V8.62158H6.89324ZM6.92774 8.72158H6.99324V8.52158H6.92774V8.72158ZM6.62354 8.42616C6.62354 8.59355 6.76377 8.72158 6.92774 8.72158V8.52158C6.86586 8.52158 6.82354 8.47491 6.82354 8.42616H6.62354ZM6.62354 7.24872V8.42616H6.82354V7.24872H6.62354ZM6.92774 6.9533C6.76377 6.9533 6.62354 7.08133 6.62354 7.24872H6.82354C6.82354 7.19997 6.86586 7.1533 6.92774 7.1533V6.9533ZM8.96145 6.9533H6.92774V7.1533H8.96145V6.9533ZM8.86145 6.19556V7.0533H9.06145V6.19556H8.86145ZM9.16565 5.90014C9.00168 5.90014 8.86145 6.02817 8.86145 6.19556H9.06145C9.06145 6.14681 9.10377 6.10014 9.16565 6.10014V5.90014ZM11.4675 5.9L9.16564 5.90014L9.16566 6.10014L11.4675 6.1L11.4675 5.9ZM11.7717 6.19542C11.7717 6.02803 11.6315 5.9 11.4675 5.9V6.1C11.5294 6.1 11.5717 6.14668 11.5717 6.19542H11.7717ZM11.7717 7.05316V6.19542H11.5717V7.05316H11.7717ZM13.7644 6.95302L11.6717 6.95316L11.6717 7.15316L13.7644 7.15302L13.7644 6.95302ZM14.0686 7.24845C14.0686 7.08105 13.9283 6.95302 13.7644 6.95302V7.15302C13.8263 7.15302 13.8686 7.1997 13.8686 7.24845H14.0686ZM14.0686 8.42589V7.24845H13.8686V8.42589H14.0686ZM13.7644 8.72131C13.9283 8.72131 14.0686 8.59328 14.0686 8.42589H13.8686C13.8686 8.47463 13.8263 8.52131 13.7644 8.52131V8.72131ZM13.6989 8.72131H13.7644V8.52131H13.6989V8.72131ZM13.7989 10.305V8.62131H13.5989V10.305H13.7989ZM17.3497 10.205H13.6989V10.405H17.3497V10.205ZM17.2497 9.37002V10.305H17.4497V9.37002H17.2497ZM17.5539 9.0746C17.3899 9.0746 17.2497 9.20263 17.2497 9.37002H17.4497C17.4497 9.32128 17.492 9.2746 17.5539 9.2746V9.0746ZM18.5036 9.07446L17.5539 9.0746L17.5539 9.2746L18.5036 9.27446L18.5036 9.07446ZM18.8078 9.36989C18.8078 9.20249 18.6675 9.07446 18.5036 9.07446V9.27446C18.5654 9.27446 18.6078 9.32114 18.6078 9.36989H18.8078ZM18.8078 10.3049V9.36989H18.6078V10.3049H18.8078ZM19.2363 10.2049H18.7078V10.4049H19.2363V10.2049ZM19.5405 10.5003C19.5405 10.3329 19.4003 10.2049 19.2363 10.2049V10.4049C19.2982 10.4049 19.3405 10.4516 19.3405 10.5003H19.5405ZM19.5405 11.6776V10.5003H19.3405V11.6776H19.5405ZM19.2363 11.973C19.4003 11.973 19.5405 11.845 19.5405 11.6776H19.3405C19.3405 11.7264 19.2982 11.773 19.2363 11.773V11.973ZM19.0858 11.973H19.2363V11.773H19.0858V11.973ZM19.186 20.6088L19.1858 11.873L18.9858 11.873L18.986 20.6088L19.186 20.6088ZM20.5372 20.5088H19.086V20.7088H20.5372V20.5088ZM20.4372 19.7685V20.6088H20.6372V19.7685H20.4372ZM19.383 18.5814C19.383 19.2323 19.8803 19.7664 20.5216 19.8673L20.5527 19.6697C20.0001 19.5828 19.583 19.1254 19.583 18.5814H19.383ZM20.1223 17.4217C19.6862 17.6371 19.383 18.0741 19.383 18.5814H19.583C19.583 18.1571 19.8366 17.7859 20.2109 17.601L20.1223 17.4217ZM19.8807 17.0397C19.8807 17.2478 19.9633 17.4343 20.0922 17.5781L20.2411 17.4446C20.1412 17.3332 20.0807 17.193 20.0807 17.0397H19.8807ZM20.7415 16.2115C20.2709 16.2115 19.8807 16.5789 19.8807 17.0397H20.0807C20.0807 16.6975 20.373 16.4115 20.7415 16.4115V16.2115ZM21.6023 17.0397C21.6023 16.5789 21.212 16.2115 20.7415 16.2115V16.4115C21.1099 16.4115 21.4023 16.6975 21.4023 17.0397H21.6023ZM21.3908 17.5781C21.5197 17.4345 21.6023 17.2478 21.6023 17.0397H21.4023C21.4023 17.193 21.3417 17.3333 21.2419 17.4445L21.3908 17.5781ZM22.1 18.5814C22.1 18.0741 21.7968 17.6373 21.3607 17.4217L21.272 17.601C21.6464 17.786 21.9 18.1571 21.9 18.5814H22.1ZM20.9611 19.8673C21.6023 19.7666 22.1 19.2323 22.1 18.5814H21.9C21.9 19.1254 21.4826 19.5829 20.93 19.6697L20.9611 19.8673ZM20.7413 17.2772C20.598 17.2772 20.4888 17.1666 20.4888 17.0398H20.2888C20.2888 17.2853 20.496 17.4772 20.7413 17.4772V17.2772ZM20.9939 17.0398C20.9939 17.1667 20.8847 17.2772 20.7413 17.2772V17.4772C20.9867 17.4772 21.1939 17.2855 21.1939 17.0398H20.9939ZM20.7413 16.8024C20.8848 16.8024 20.9939 16.913 20.9939 17.0398H21.1939C21.1939 16.7943 20.9869 16.6024 20.7413 16.6024V16.8024ZM20.4888 17.0398C20.4888 16.913 20.5979 16.8024 20.7413 16.8024V16.6024C20.4958 16.6024 20.2888 16.7943 20.2888 17.0398H20.4888ZM20.7413 19.2952C20.3236 19.2952 19.9912 18.971 19.9912 18.5815H19.7912C19.7912 19.0896 20.2215 19.4952 20.7413 19.4952V19.2952ZM21.4916 18.5815C21.4916 18.9709 21.1591 19.2952 20.7413 19.2952V19.4952C21.2611 19.4952 21.6916 19.0896 21.6916 18.5815H21.4916ZM20.7413 17.868C21.1592 17.868 21.4916 18.1922 21.4916 18.5815H21.6916C21.6916 18.0736 21.2613 17.668 20.7413 17.668V17.868ZM19.9912 18.5815C19.9912 18.1922 20.3236 17.868 20.7413 17.868V17.668C20.2215 17.668 19.7912 18.0736 19.7912 18.5815H19.9912ZM15.2893 16.982H17.0505V16.782H15.2893V16.982ZM15.3893 20.6086V16.882H15.1893V20.6086H15.3893ZM17.0505 20.5086H15.2893V20.7086H17.0505V20.5086ZM16.9505 16.882V20.6086H17.1505V16.882H16.9505ZM11.2634 6.95325H9.36994V7.15325H11.2634V6.95325ZM11.1634 6.39095V7.05325H11.3634V6.39095H11.1634ZM9.36994 6.49095H11.2634V6.29095H9.36994V6.49095ZM9.46994 7.05325V6.39095H9.26994V7.05325H9.46994ZM13.5604 8.13083H7.13216V8.33083H13.5604V8.13083ZM13.4604 7.44409V8.23083H13.6604V7.44409H13.4604ZM7.13216 7.54409H13.5604V7.34409H7.13216V7.54409ZM7.23216 8.23083V7.44409H7.03216V8.23083H7.23216ZM13.1904 8.62167V20.6092H13.3904V8.62167H13.1904ZM7.40169 8.72188L13.2904 8.72167L13.2904 8.52167L7.40168 8.52188L7.40169 8.72188ZM7.50169 20.6091V8.62188H7.30169V20.6091H7.50169ZM13.2904 20.5092L7.40169 20.5091L7.40169 20.7091L13.2904 20.7092L13.2904 20.5092ZM18.2994 10.2053H17.758V10.4053H18.2994V10.2053ZM18.1994 9.56554V10.3053H18.3994V9.56554H18.1994ZM17.758 9.66554H18.2994V9.46554H17.758V9.66554ZM17.858 10.3053V9.56554H17.658V10.3053H17.858ZM19.032 11.3826H13.6988V11.5826H19.032V11.3826ZM18.932 10.696V11.4826H19.132V10.696H18.932ZM13.6988 10.796H19.032V10.596H13.6988V10.796ZM13.7988 11.4826V10.696H13.5988V11.4826H13.7988ZM18.5774 11.8733V20.609H18.7774V11.8733H18.5774ZM13.6988 11.9734L18.6775 11.9733L18.6774 11.7733L13.6988 11.7734L13.6988 11.9734ZM13.7987 20.6091L13.7988 11.8734L13.5988 11.8734L13.5987 20.6091L13.7987 20.6091ZM14.8807 20.5091H13.6987V20.7091H14.8807V20.5091ZM14.7807 16.6868V20.6091H14.9807V16.6868H14.7807ZM15.0849 16.3913C14.921 16.3913 14.7807 16.5194 14.7807 16.6868H14.9807C14.9807 16.638 15.023 16.5913 15.0849 16.5913V16.3913ZM17.2541 16.3912L15.0849 16.3913L15.0849 16.5913L17.2541 16.5912L17.2541 16.3912ZM17.5583 16.6866C17.5583 16.5192 17.418 16.3912 17.2541 16.3912V16.5912C17.3159 16.5912 17.3583 16.6379 17.3583 16.6866H17.5583ZM17.5584 20.609L17.5583 16.6866L17.3583 16.6866L17.3584 20.609L17.5584 20.609ZM18.6774 20.509H17.4584V20.709H18.6774V20.509ZM10.144 11.5042V9.68883H9.94401V11.5042H10.144ZM9.83981 11.7996C10.0039 11.7996 10.144 11.6712 10.144 11.5042H9.94401C9.94401 11.5527 9.9016 11.5996 9.83981 11.5996V11.7996ZM8.4926 11.7997L9.83982 11.7996L9.8398 11.5996L8.49258 11.5997L8.4926 11.7997ZM8.18839 11.5043C8.18839 11.6717 8.32862 11.7997 8.49259 11.7997V11.5997C8.43071 11.5997 8.38839 11.5531 8.38839 11.5043H8.18839ZM8.18839 9.68897V11.5043H8.38839V9.68897H8.18839ZM8.49259 9.39354C8.32862 9.39354 8.18839 9.52158 8.18839 9.68897H8.38839C8.38839 9.64022 8.43071 9.59354 8.49259 9.59354V9.39354ZM9.8398 9.39341L8.49258 9.39354L8.4926 9.59354L9.83982 9.59341L9.8398 9.39341ZM10.144 9.68883C10.144 9.52144 10.0038 9.39341 9.83981 9.39341V9.59341C9.90169 9.59341 9.94401 9.64008 9.94401 9.68883H10.144ZM9.63576 11.2089H8.69664V11.4089H9.63576V11.2089ZM9.53576 9.88425V11.3089H9.73576V9.88425H9.53576ZM8.69664 9.98425H9.63576V9.78425H8.69664V9.98425ZM8.79664 11.3089V9.88425H8.59664V11.3089H8.79664ZM9.94401 13.2245V15.0398H10.144V13.2245H9.94401ZM9.83981 13.1291C9.90169 13.1291 9.94401 13.1757 9.94401 13.2245H10.144C10.144 13.0571 10.0038 12.9291 9.83981 12.9291V13.1291ZM8.49259 13.1291H9.83981V12.9291H8.49259V13.1291ZM8.38839 13.2245C8.38839 13.1757 8.43071 13.1291 8.49259 13.1291V12.9291C8.32862 12.9291 8.18839 13.0571 8.18839 13.2245H8.38839ZM8.38839 15.0398V13.2245H8.18839V15.0398H8.38839ZM8.49259 15.1353C8.43071 15.1353 8.38839 15.0886 8.38839 15.0398H8.18839C8.18839 15.2072 8.32862 15.3353 8.49259 15.3353V15.1353ZM9.8398 15.1351L8.49258 15.1353L8.4926 15.3353L9.83982 15.3351L9.8398 15.1351ZM9.94401 15.0398C9.94401 15.0884 9.90173 15.1351 9.83981 15.1351V15.3351C10.0037 15.3351 10.144 15.2071 10.144 15.0398H9.94401ZM8.69664 14.9444H9.63576V14.7444H8.69664V14.9444ZM8.59664 13.4198V14.8444H8.79664V13.4198H8.59664ZM9.63576 13.3198H8.69664V13.5198H9.63576V13.3198ZM9.73576 14.8444V13.4198H9.53576V14.8444H9.73576ZM12.2454 13.2245V15.0398H12.4454V13.2245H12.2454ZM12.1412 13.1291C12.2031 13.1291 12.2454 13.1757 12.2454 13.2245H12.4454C12.4454 13.0571 12.3052 12.9291 12.1412 12.9291V13.1291ZM10.7934 13.1291H12.1412V12.9291H10.7934V13.1291ZM10.6892 13.2245C10.6892 13.1757 10.7316 13.1291 10.7934 13.1291V12.9291C10.6295 12.9291 10.4892 13.0571 10.4892 13.2245H10.6892ZM10.6892 15.0398V13.2245H10.4892V15.0398H10.6892ZM10.7934 15.1353C10.7316 15.1353 10.6892 15.0886 10.6892 15.0398H10.4892C10.4892 15.2072 10.6295 15.3353 10.7934 15.3353V15.1353ZM12.1412 15.1353H10.7934V15.3353H12.1412V15.1353ZM12.2454 15.0398C12.2454 15.0883 12.2031 15.1352 12.1411 15.1353L12.1414 15.3353C12.305 15.3351 12.4454 15.2072 12.4454 15.0398H12.2454ZM10.9978 14.9444H11.9372V14.7444H10.9978V14.9444ZM10.8978 13.4198V14.8444H11.0978V13.4198H10.8978ZM11.9372 13.3198H10.9978V13.5198H11.9372V13.3198ZM12.0372 14.8444V13.4198H11.8372V14.8444H12.0372ZM10.144 18.6211V16.8058H9.94401V18.6211H10.144ZM9.83981 18.9166C10.0038 18.9166 10.144 18.7885 10.144 18.6211H9.94401C9.94401 18.6699 9.90169 18.7166 9.83981 18.7166V18.9166ZM8.4926 18.9167L9.83982 18.9166L9.8398 18.7166L8.49258 18.7167L8.4926 18.9167ZM8.18839 18.6213C8.18839 18.7887 8.32862 18.9167 8.49259 18.9167V18.7167C8.43071 18.7167 8.38839 18.67 8.38839 18.6213H8.18839ZM8.18839 16.8059V18.6213H8.38839V16.8059H8.18839ZM8.49259 16.5105C8.32862 16.5105 8.18839 16.6385 8.18839 16.8059H8.38839C8.38839 16.7572 8.43071 16.7105 8.49259 16.7105V16.5105ZM9.8398 16.5104L8.49258 16.5105L8.4926 16.7105L9.83982 16.7104L9.8398 16.5104ZM10.144 16.8058C10.144 16.6384 10.0038 16.5104 9.83981 16.5104V16.7104C9.90169 16.7104 9.94401 16.757 9.94401 16.8058H10.144ZM9.63576 18.3258H8.69664V18.5258H9.63576V18.3258ZM9.53576 17.0012V18.4258H9.73576V17.0012H9.53576ZM8.69664 17.1012H9.63576V16.9012H8.69664V17.1012ZM8.79664 18.4258V17.0012H8.59664V18.4258H8.79664ZM12.2454 16.8058V18.6211H12.4454V16.8058H12.2454ZM12.1412 16.7104C12.2031 16.7104 12.2454 16.757 12.2454 16.8058H12.4454C12.4454 16.6384 12.3052 16.5104 12.1412 16.5104V16.7104ZM10.7934 16.7104H12.1412V16.5104H10.7934V16.7104ZM10.6892 16.8058C10.6892 16.757 10.7316 16.7104 10.7934 16.7104V16.5104C10.6295 16.5104 10.4892 16.6384 10.4892 16.8058H10.6892ZM10.6892 18.6211V16.8058H10.4892V18.6211H10.6892ZM10.7934 18.7166C10.7316 18.7166 10.6892 18.6699 10.6892 18.6211H10.4892C10.4892 18.7885 10.6295 18.9166 10.7934 18.9166V18.7166ZM12.1412 18.7166H10.7934V18.9166H12.1412V18.7166ZM12.2454 18.6211C12.2454 18.6698 12.203 18.7166 12.1412 18.7166V18.9166C12.305 18.9166 12.4454 18.7886 12.4454 18.6211H12.2454ZM10.9978 18.5258H11.9372V18.3258H10.9978V18.5258ZM10.8978 17.0012V18.4258H11.0978V17.0012H10.8978ZM11.9372 16.9012H10.9978V17.1012H11.9372V16.9012ZM12.0372 18.4258V17.0012H11.8372V18.4258H12.0372ZM12.2454 9.68883V11.5042H12.4454V9.68883H12.2454ZM12.1412 9.59341C12.2031 9.59341 12.2454 9.64008 12.2454 9.68883H12.4454C12.4454 9.52144 12.3052 9.39341 12.1412 9.39341V9.59341ZM10.7934 9.59341H12.1412V9.39341H10.7934V9.59341ZM10.6892 9.68883C10.6892 9.64008 10.7316 9.59341 10.7934 9.59341V9.39341C10.6295 9.39341 10.4892 9.52144 10.4892 9.68883H10.6892ZM10.6892 11.5042V9.68883H10.4892V11.5042H10.6892ZM10.7934 11.5996C10.7316 11.5996 10.6892 11.5529 10.6892 11.5042H10.4892C10.4892 11.6716 10.6295 11.7996 10.7934 11.7996V11.5996ZM12.1412 11.5996H10.7934V11.7996H12.1412V11.5996ZM12.2454 11.5042C12.2454 11.5527 12.2029 11.5996 12.1412 11.5996V11.7996C12.3051 11.7996 12.4454 11.6713 12.4454 11.5042H12.2454ZM10.9978 11.4089H11.9372V11.2089H10.9978V11.4089ZM10.8978 9.88425V11.3089H11.0978V9.88425H10.8978ZM11.9372 9.78425H10.9978V9.98425H11.9372V9.78425ZM12.0372 11.3089V9.88425H11.8372V11.3089H12.0372Z" fill="#241D5D"/>
</svg>
