<svg width="222" height="44" viewBox="0 0 222 44" fill="none" xmlns="http://www.w3.org/2000/svg">
<path d="M25.5607 5.65753H8.64453V8.79033H25.5607V5.65753Z" fill="#241D5D"/>
<path d="M22.1364 12.8749H0V16.0077H22.1364V12.8749Z" fill="#241D5D"/>
<path d="M25.5607 20.079H8.64453V23.2118H25.5607V20.079Z" fill="#241D5D"/>
<path d="M50.867 25.8291L55.0431 31.1165H51.5806L48.7128 27.4682C46.4132 28.8826 43.823 29.5964 40.9419 29.5964C36.7658 29.5964 33.2504 28.1688 30.3826 25.3003C27.5147 22.4451 26.0742 18.9819 26.0742 14.9238C26.0742 12.214 26.735 9.70243 28.0434 7.38918C29.3517 5.07593 31.1491 3.26499 33.409 1.95635C35.6688 0.647714 38.1534 0 40.8626 0C45.0388 0 48.5542 1.42761 51.422 4.28282C54.2898 7.13803 55.7171 10.6409 55.7171 14.8048C55.7171 16.9726 55.3207 18.9554 54.5409 20.7664C53.7612 22.5641 52.5321 24.2561 50.867 25.8291ZM49.1225 23.6348C51.5806 21.2422 52.8097 18.2945 52.8097 14.7916C52.8097 12.5576 52.2942 10.5352 51.2502 8.72425C50.2062 6.9133 48.7392 5.47249 46.8494 4.37535C44.9595 3.29143 42.9639 2.74946 40.8759 2.74946C38.7878 2.74946 36.779 3.29143 34.9156 4.37535C33.0521 5.45927 31.5984 6.91331 30.5544 8.76391C29.5103 10.6145 28.9817 12.6634 28.9817 14.9238C28.9817 18.2681 30.1315 21.0968 32.4442 23.4101C34.757 25.7233 37.5455 26.8733 40.8098 26.8733C43.0432 26.8733 45.0917 26.3314 46.9419 25.2474L40.6644 17.2767H44.0873L49.1225 23.6348Z" fill="#241D5D"/>
<path d="M61.5195 0.713806H64.3345V17.7261C64.3345 19.7485 64.3741 21.0043 64.4534 21.5066C64.5988 22.617 64.916 23.5423 65.4314 24.2957C65.9468 25.0492 66.7265 25.6704 67.7838 26.1728C68.8411 26.6751 69.9115 26.9262 70.982 26.9262C71.9203 26.9262 72.8058 26.7279 73.6648 26.3314C74.5238 25.9348 75.2375 25.3929 75.8057 24.6791C76.374 23.9785 76.7969 23.1325 77.0745 22.1279C77.2727 21.4141 77.3652 19.9468 77.3652 17.7261V0.713806H80.1801V17.7261C80.1801 20.2376 79.929 22.2733 79.4401 23.8331C78.9511 25.3796 77.9599 26.7411 76.493 27.8912C75.026 29.0412 73.2287 29.6096 71.1406 29.6096C68.8675 29.6096 66.9248 29.0676 65.2992 27.9837C63.6737 26.8998 62.59 25.459 62.0482 23.6744C61.7045 22.5773 61.5327 20.5945 61.5327 17.7393V0.727028L61.5195 0.713806Z" fill="#241D5D"/>
<path d="M86.707 0.713806H89.522V28.8958H86.707V0.713806Z" fill="#241D5D"/>
<path d="M122.219 5.94831L119.999 7.65351C118.77 6.05406 117.303 4.85117 115.585 4.01841C113.867 3.19885 111.977 2.78908 109.928 2.78908C107.682 2.78908 105.593 3.33104 103.69 4.40174C101.774 5.48567 100.294 6.92649 99.2367 8.75065C98.1794 10.5748 97.6508 12.6237 97.6508 14.8841C97.6508 18.3209 98.827 21.1893 101.179 23.4893C103.532 25.7894 106.505 26.9394 110.1 26.9394C114.052 26.9394 117.342 25.3928 119.999 22.2997L122.219 23.9916C120.818 25.7762 119.06 27.1641 116.959 28.1423C114.858 29.1204 112.519 29.6095 109.915 29.6095C104.986 29.6095 101.1 27.9704 98.2455 24.6922C95.8535 21.9163 94.6641 18.572 94.6641 14.6593C94.6641 10.5352 96.1046 7.05867 98.9988 4.24312C101.893 1.42757 105.514 0.0131836 109.862 0.0131836C112.492 0.0131836 114.871 0.528708 116.985 1.57297C119.1 2.61724 120.844 4.07128 122.192 5.94831H122.219Z" fill="#241D5D"/>
<path d="M127.861 0.713783H130.729V11.2886L141.989 0.713783H145.769L132.236 13.3507L146.826 28.8825H143.073L130.729 15.7565V28.8825H127.861V0.700562V0.713783Z" fill="#241D5D"/>
<path d="M150.817 0.713806H156.5C159.579 0.713806 161.8 1.00461 163.161 1.55979C164.522 2.12819 165.593 3.0535 166.372 4.32248C167.152 5.59146 167.549 7.11159 167.549 8.8961C167.549 10.8657 167.033 12.4915 166.002 13.8002C164.972 15.1088 163.584 16.0077 161.813 16.5232C160.782 16.814 158.892 16.9594 156.157 16.9594V28.8958H150.791V0.713806H150.817ZM156.17 11.7381H157.875C159.209 11.7381 160.148 11.6456 160.676 11.4473C161.205 11.249 161.615 10.9318 161.905 10.4955C162.209 10.0593 162.355 9.51737 162.355 8.8961C162.355 7.81218 161.932 7.00584 161.086 6.51675C160.478 6.14663 159.342 5.96158 157.676 5.96158H156.17V11.7513V11.7381Z" fill="#241D5D"/>
<path d="M181.398 0.713806H186.843L197.68 28.8958H192.103L189.896 23.0928H178.399L176.112 28.8958H170.535L181.398 0.713806ZM184.147 8.18229L180.368 17.8583H187.901L184.147 8.18229Z" fill="#241D5D"/>
<path d="M199.807 0.713806H205.569L210.829 10.8524L216.062 0.713806H221.745L213.498 16.695V28.8958H208.093V16.695L199.807 0.713806Z" fill="#241D5D"/>
<path d="M128.232 34.1303H130.003C130.717 34.1303 131.272 34.2096 131.655 34.3815C132.039 34.5533 132.343 34.8177 132.567 35.1614C132.792 35.5183 132.898 35.9016 132.898 36.3246C132.898 36.7212 132.805 37.0913 132.607 37.4217C132.409 37.7522 132.131 38.0166 131.748 38.2149C132.21 38.3735 132.58 38.5585 132.831 38.77C133.083 38.9815 133.281 39.2459 133.426 39.5499C133.572 39.854 133.638 40.1844 133.638 40.5413C133.638 41.2683 133.373 41.8764 132.845 42.3787C132.316 42.881 131.602 43.1322 130.717 43.1322H128.246V34.1303H128.232ZM129.118 35.016V37.8976H129.633C130.254 37.8976 130.717 37.8447 131.008 37.7258C131.298 37.6068 131.536 37.4217 131.708 37.1706C131.88 36.9194 131.959 36.6418 131.959 36.3378C131.959 35.928 131.814 35.5976 131.523 35.3729C131.232 35.1481 130.77 35.016 130.149 35.016H129.105H129.118ZM129.118 38.8097V42.2597H130.228C130.889 42.2597 131.365 42.1936 131.669 42.0614C131.972 41.9293 132.224 41.731 132.409 41.4534C132.594 41.1758 132.686 40.885 132.686 40.5678C132.686 40.1712 132.554 39.8143 132.29 39.5235C132.025 39.2195 131.669 39.0212 131.206 38.9154C130.902 38.8361 130.36 38.8097 129.607 38.8097H129.091H129.118Z" fill="#241D5D"/>
<path d="M139.082 34.1303H140.113L142.412 37.8447L144.686 34.1303H145.73L142.875 38.8361V43.1454H141.989V38.8361L139.082 34.1303Z" fill="#241D5D"/>
<path d="M159.447 34.1303H161.244C162.275 34.1303 162.962 34.17 163.319 34.2625C163.834 34.3947 164.257 34.6458 164.575 35.0424C164.905 35.439 165.064 35.928 165.064 36.5229C165.064 37.1177 164.905 37.62 164.588 38.0033C164.271 38.3867 163.834 38.6511 163.266 38.7965C162.856 38.889 162.09 38.9419 160.98 38.9419H160.332V43.1322H159.434V34.1303H159.447ZM160.345 35.016V38.0694H161.865C162.486 38.0827 162.936 38.0298 163.213 37.924C163.504 37.8183 163.729 37.6332 163.887 37.3821C164.046 37.1309 164.138 36.8533 164.138 36.5361C164.138 36.2188 164.059 35.9545 163.887 35.7033C163.715 35.4522 163.504 35.2803 163.24 35.1746C162.975 35.0688 162.539 35.016 161.931 35.016H160.345Z" fill="#241D5D"/>
<path d="M171.133 34.1303H172.031V43.1322H171.133V34.1303Z" fill="#241D5D"/>
<path d="M178.479 43.1454V34.1435H178.677L184.663 41.0436V34.1435H185.549V43.1454H185.351L179.404 36.3246V43.1454H178.479Z" fill="#241D5D"/>
<path d="M200.524 35.8091L199.81 36.351C199.414 35.8355 198.951 35.4522 198.396 35.1878C197.841 34.9234 197.246 34.7912 196.586 34.7912C195.872 34.7912 195.198 34.9631 194.59 35.3067C193.982 35.6504 193.506 36.1131 193.163 36.6947C192.819 37.2763 192.661 37.924 192.661 38.6511C192.661 39.7482 193.031 40.6603 193.784 41.4005C194.537 42.1407 195.489 42.4976 196.638 42.4976C197.894 42.4976 198.951 42.0086 199.797 41.0172L200.511 41.5591C200.061 42.1275 199.506 42.577 198.832 42.881C198.158 43.1982 197.405 43.3436 196.586 43.3436C195.013 43.3436 193.771 42.8149 192.859 41.7706C192.092 40.885 191.709 39.8143 191.709 38.5585C191.709 37.2367 192.172 36.1263 193.097 35.2274C194.022 34.3286 195.185 33.8792 196.572 33.8792C197.418 33.8792 198.171 34.051 198.845 34.3815C199.519 34.7119 200.075 35.1746 200.511 35.7826L200.524 35.8091Z" fill="#241D5D"/>
<path d="M206.707 34.1303H207.606V37.9108H212.192V34.1303H213.09V43.1322H212.192V38.7832H207.606V43.1322H206.707V34.1303Z" fill="#241D5D"/>
</svg>
