<svg width="12" height="8" viewBox="0 0 12 8" fill="none" xmlns="http://www.w3.org/2000/svg">
<path d="M12 4L11.9439 3.85835C11.0672 1.62351 8.56714 0 6 0C3.43286 0 0.931108 1.62203 0.0560608 3.85835L0 4L0.0560608 4.14165C0.932782 6.37649 3.43286 8 6 8C8.56714 8 11.0689 6.37797 11.9439 4.14165L12 4ZM5.99985 7.21253C3.83914 7.21253 1.6605 5.84071 0.857008 4C1.6582 2.15935 3.83914 0.787466 5.99985 0.787466C8.16056 0.787466 10.3392 2.15929 11.1427 4C10.3399 5.84065 8.16136 7.21253 5.99985 7.21253Z" fill="#4F4F4F"/>
<path d="M5.99985 1.78129C5.83478 1.78129 5.6627 1.8013 5.4914 1.84057L5.14647 1.91909L5.28428 2.24241C5.32633 2.34095 5.34813 2.44564 5.34813 2.55342C5.34813 2.99453 4.98529 3.35557 4.53681 3.35557C4.42702 3.35557 4.32191 3.33402 4.22225 3.29245L3.89523 3.15619L3.81581 3.49723C3.7761 3.66659 3.75586 3.83441 3.75586 3.99993C3.75586 5.22395 4.76262 6.2194 6.00068 6.2194C7.23868 6.2194 8.24551 5.22401 8.24551 3.99993C8.24473 2.77668 7.23637 1.78129 5.99985 1.78129Z" fill="#4F4F4F"/>
</svg>
